<mxfile host="app.diagrams.net" agent="Mozilla/5.0 (Windows NT 10.0; Win64; x64) AppleWebKit/537.36 (KHTML, like Gecko) Chrome/131.0.0.0 Safari/537.36" version="26.0.5">
  <diagram name="Page-1" id="NtjucTQWrcRRxVQavW-V">
    <mxGraphModel dx="1506" dy="2438" grid="1" gridSize="10" guides="1" tooltips="1" connect="1" arrows="1" fold="1" page="1" pageScale="1" pageWidth="827" pageHeight="1169" math="0" shadow="0">
      <root>
        <mxCell id="0" />
        <mxCell id="1" parent="0" />
        <mxCell id="yQtuGmCHs2OhEpyhOsAx-1" value="" style="rounded=1;whiteSpace=wrap;html=1;" vertex="1" parent="1">
          <mxGeometry x="1510" y="-20" width="900" height="1170" as="geometry" />
        </mxCell>
        <mxCell id="yQtuGmCHs2OhEpyhOsAx-2" value="NVIC" style="rounded=0;whiteSpace=wrap;html=1;" vertex="1" parent="1">
          <mxGeometry x="1660" y="100" width="120" height="60" as="geometry" />
        </mxCell>
        <mxCell id="yQtuGmCHs2OhEpyhOsAx-3" value="" style="endArrow=classic;html=1;rounded=0;entryX=0;entryY=0.5;entryDx=0;entryDy=0;" edge="1" parent="1" target="yQtuGmCHs2OhEpyhOsAx-2">
          <mxGeometry width="50" height="50" relative="1" as="geometry">
            <mxPoint x="1570" y="130" as="sourcePoint" />
            <mxPoint x="1610" y="110" as="targetPoint" />
          </mxGeometry>
        </mxCell>
        <mxCell id="yQtuGmCHs2OhEpyhOsAx-4" value="bouton_1" style="edgeLabel;html=1;align=center;verticalAlign=middle;resizable=0;points=[];" vertex="1" connectable="0" parent="yQtuGmCHs2OhEpyhOsAx-3">
          <mxGeometry x="-0.2667" y="2" relative="1" as="geometry">
            <mxPoint y="-28" as="offset" />
          </mxGeometry>
        </mxCell>
        <mxCell id="yQtuGmCHs2OhEpyhOsAx-5" value="IRQ_bouton_1" style="edgeLabel;html=1;align=center;verticalAlign=middle;resizable=0;points=[];" vertex="1" connectable="0" parent="1">
          <mxGeometry x="1851.939960992327" y="114.1626328380762" as="geometry" />
        </mxCell>
        <mxCell id="yQtuGmCHs2OhEpyhOsAx-6" value="NVIC" style="rounded=0;whiteSpace=wrap;html=1;" vertex="1" parent="1">
          <mxGeometry x="1660" y="190" width="120" height="60" as="geometry" />
        </mxCell>
        <mxCell id="yQtuGmCHs2OhEpyhOsAx-7" value="" style="endArrow=classic;html=1;rounded=0;entryX=0;entryY=0.5;entryDx=0;entryDy=0;" edge="1" parent="1" target="yQtuGmCHs2OhEpyhOsAx-6">
          <mxGeometry width="50" height="50" relative="1" as="geometry">
            <mxPoint x="1570" y="220" as="sourcePoint" />
            <mxPoint x="1610" y="200" as="targetPoint" />
          </mxGeometry>
        </mxCell>
        <mxCell id="yQtuGmCHs2OhEpyhOsAx-8" value="bouton_2" style="edgeLabel;html=1;align=center;verticalAlign=middle;resizable=0;points=[];" vertex="1" connectable="0" parent="yQtuGmCHs2OhEpyhOsAx-7">
          <mxGeometry x="-0.2667" y="2" relative="1" as="geometry">
            <mxPoint y="-28" as="offset" />
          </mxGeometry>
        </mxCell>
        <mxCell id="yQtuGmCHs2OhEpyhOsAx-9" value="I2C" style="rounded=0;whiteSpace=wrap;html=1;" vertex="1" parent="1">
          <mxGeometry x="1660" y="270" width="120" height="60" as="geometry" />
        </mxCell>
        <mxCell id="yQtuGmCHs2OhEpyhOsAx-10" value="" style="endArrow=classic;html=1;rounded=0;entryX=0;entryY=0.5;entryDx=0;entryDy=0;" edge="1" parent="1" target="yQtuGmCHs2OhEpyhOsAx-9">
          <mxGeometry width="50" height="50" relative="1" as="geometry">
            <mxPoint x="1570" y="300" as="sourcePoint" />
            <mxPoint x="1610" y="280" as="targetPoint" />
          </mxGeometry>
        </mxCell>
        <mxCell id="yQtuGmCHs2OhEpyhOsAx-11" value="mesure_HTS221" style="edgeLabel;html=1;align=center;verticalAlign=middle;resizable=0;points=[];" vertex="1" connectable="0" parent="yQtuGmCHs2OhEpyhOsAx-10">
          <mxGeometry x="-0.2667" y="2" relative="1" as="geometry">
            <mxPoint y="-28" as="offset" />
          </mxGeometry>
        </mxCell>
        <mxCell id="yQtuGmCHs2OhEpyhOsAx-12" value="IRQ_HTS221" style="edgeLabel;html=1;align=center;verticalAlign=middle;resizable=0;points=[];" vertex="1" connectable="0" parent="1">
          <mxGeometry x="1854.4959604097498" y="269.7248058302939" as="geometry" />
        </mxCell>
        <mxCell id="yQtuGmCHs2OhEpyhOsAx-13" value="I2C" style="rounded=0;whiteSpace=wrap;html=1;" vertex="1" parent="1">
          <mxGeometry x="1660" y="350" width="120" height="60" as="geometry" />
        </mxCell>
        <mxCell id="yQtuGmCHs2OhEpyhOsAx-14" value="" style="endArrow=classic;html=1;rounded=0;entryX=0;entryY=0.5;entryDx=0;entryDy=0;" edge="1" parent="1" target="yQtuGmCHs2OhEpyhOsAx-13">
          <mxGeometry width="50" height="50" relative="1" as="geometry">
            <mxPoint x="1570" y="380" as="sourcePoint" />
            <mxPoint x="1610" y="360" as="targetPoint" />
          </mxGeometry>
        </mxCell>
        <mxCell id="yQtuGmCHs2OhEpyhOsAx-15" value="mesure_LPS22HH" style="edgeLabel;html=1;align=center;verticalAlign=middle;resizable=0;points=[];" vertex="1" connectable="0" parent="yQtuGmCHs2OhEpyhOsAx-14">
          <mxGeometry x="-0.2667" y="2" relative="1" as="geometry">
            <mxPoint y="-28" as="offset" />
          </mxGeometry>
        </mxCell>
        <mxCell id="yQtuGmCHs2OhEpyhOsAx-16" value="IRQ_HTS221" style="edgeLabel;html=1;align=center;verticalAlign=middle;resizable=0;points=[];" vertex="1" connectable="0" parent="1">
          <mxGeometry x="1849.5063464706927" y="351.28234991024556" as="geometry" />
        </mxCell>
        <mxCell id="yQtuGmCHs2OhEpyhOsAx-17" value="UART" style="rounded=0;whiteSpace=wrap;html=1;" vertex="1" parent="1">
          <mxGeometry x="1660" y="440" width="120" height="60" as="geometry" />
        </mxCell>
        <mxCell id="yQtuGmCHs2OhEpyhOsAx-18" value="" style="endArrow=classic;html=1;rounded=0;entryX=0;entryY=0.5;entryDx=0;entryDy=0;" edge="1" parent="1" target="yQtuGmCHs2OhEpyhOsAx-17">
          <mxGeometry width="50" height="50" relative="1" as="geometry">
            <mxPoint x="1570" y="470" as="sourcePoint" />
            <mxPoint x="1610" y="450" as="targetPoint" />
          </mxGeometry>
        </mxCell>
        <mxCell id="yQtuGmCHs2OhEpyhOsAx-19" value="mesure_rain" style="edgeLabel;html=1;align=center;verticalAlign=middle;resizable=0;points=[];" vertex="1" connectable="0" parent="yQtuGmCHs2OhEpyhOsAx-18">
          <mxGeometry x="-0.2667" y="2" relative="1" as="geometry">
            <mxPoint y="-28" as="offset" />
          </mxGeometry>
        </mxCell>
        <mxCell id="yQtuGmCHs2OhEpyhOsAx-20" value="IRQ_Rain" style="edgeLabel;html=1;align=center;verticalAlign=middle;resizable=0;points=[];" vertex="1" connectable="0" parent="1">
          <mxGeometry x="1831.9967421365695" y="442.22011020031323" as="geometry" />
        </mxCell>
        <mxCell id="yQtuGmCHs2OhEpyhOsAx-21" style="edgeStyle=orthogonalEdgeStyle;rounded=0;orthogonalLoop=1;jettySize=auto;html=1;" edge="1" parent="1" source="yQtuGmCHs2OhEpyhOsAx-22">
          <mxGeometry relative="1" as="geometry">
            <mxPoint x="1940" y="700" as="targetPoint" />
          </mxGeometry>
        </mxCell>
        <mxCell id="yQtuGmCHs2OhEpyhOsAx-22" value="UART" style="rounded=0;whiteSpace=wrap;html=1;" vertex="1" parent="1">
          <mxGeometry x="1669.76" y="650" width="120" height="60" as="geometry" />
        </mxCell>
        <mxCell id="yQtuGmCHs2OhEpyhOsAx-23" value="" style="endArrow=classic;html=1;rounded=0;entryX=0;entryY=0.5;entryDx=0;entryDy=0;" edge="1" parent="1" target="yQtuGmCHs2OhEpyhOsAx-22">
          <mxGeometry width="50" height="50" relative="1" as="geometry">
            <mxPoint x="1579.76" y="680" as="sourcePoint" />
            <mxPoint x="1619.76" y="660" as="targetPoint" />
          </mxGeometry>
        </mxCell>
        <mxCell id="yQtuGmCHs2OhEpyhOsAx-24" value="mesure_Wind" style="edgeLabel;html=1;align=center;verticalAlign=middle;resizable=0;points=[];" vertex="1" connectable="0" parent="yQtuGmCHs2OhEpyhOsAx-23">
          <mxGeometry x="-0.2667" y="2" relative="1" as="geometry">
            <mxPoint y="-28" as="offset" />
          </mxGeometry>
        </mxCell>
        <mxCell id="yQtuGmCHs2OhEpyhOsAx-25" value="IRQ_wind" style="edgeLabel;html=1;align=center;verticalAlign=middle;resizable=0;points=[];" vertex="1" connectable="0" parent="1">
          <mxGeometry x="1841.756416019333" y="649.7600063487512" as="geometry" />
        </mxCell>
        <mxCell id="yQtuGmCHs2OhEpyhOsAx-26" style="edgeStyle=orthogonalEdgeStyle;rounded=0;orthogonalLoop=1;jettySize=auto;html=1;endArrow=none;endFill=0;" edge="1" parent="1" source="yQtuGmCHs2OhEpyhOsAx-27">
          <mxGeometry relative="1" as="geometry">
            <mxPoint x="1860" y="510" as="targetPoint" />
          </mxGeometry>
        </mxCell>
        <mxCell id="yQtuGmCHs2OhEpyhOsAx-27" value="Timer6" style="rounded=0;whiteSpace=wrap;html=1;" vertex="1" parent="1">
          <mxGeometry x="1660" y="520" width="120" height="60" as="geometry" />
        </mxCell>
        <mxCell id="yQtuGmCHs2OhEpyhOsAx-28" value="conteur" style="edgeLabel;html=1;align=center;verticalAlign=middle;resizable=0;points=[];" vertex="1" connectable="0" parent="1">
          <mxGeometry x="1822.002183994021" y="520.1800023615897" as="geometry">
            <mxPoint x="-12" y="11" as="offset" />
          </mxGeometry>
        </mxCell>
        <mxCell id="yQtuGmCHs2OhEpyhOsAx-29" value="Timer1" style="rounded=0;whiteSpace=wrap;html=1;" vertex="1" parent="1">
          <mxGeometry x="1669.76" y="730" width="120" height="60" as="geometry" />
        </mxCell>
        <mxCell id="yQtuGmCHs2OhEpyhOsAx-30" value="conteur" style="edgeLabel;html=1;align=center;verticalAlign=middle;resizable=0;points=[];" vertex="1" connectable="0" parent="1">
          <mxGeometry x="1846.764789857624" y="730.516678329243" as="geometry">
            <mxPoint x="-10" y="4" as="offset" />
          </mxGeometry>
        </mxCell>
        <mxCell id="yQtuGmCHs2OhEpyhOsAx-31" value="TimerRCT" style="rounded=0;whiteSpace=wrap;html=1;" vertex="1" parent="1">
          <mxGeometry x="1669.76" y="840" width="120" height="60" as="geometry" />
        </mxCell>
        <mxCell id="yQtuGmCHs2OhEpyhOsAx-32" value="conteur" style="edgeLabel;html=1;align=center;verticalAlign=middle;resizable=0;points=[];" vertex="1" connectable="0" parent="1">
          <mxGeometry x="1822.0061104160832" y="840.0044176767753" as="geometry">
            <mxPoint x="11" y="5" as="offset" />
          </mxGeometry>
        </mxCell>
        <mxCell id="yQtuGmCHs2OhEpyhOsAx-33" value="IRQ_bouton_2" style="edgeLabel;html=1;align=center;verticalAlign=middle;resizable=0;points=[];" vertex="1" connectable="0" parent="1">
          <mxGeometry x="1829.9955555555555" y="200" as="geometry" />
        </mxCell>
        <mxCell id="yQtuGmCHs2OhEpyhOsAx-34" value="" style="endArrow=classic;html=1;rounded=0;" edge="1" parent="1">
          <mxGeometry width="50" height="50" relative="1" as="geometry">
            <mxPoint x="2060" y="160" as="sourcePoint" />
            <mxPoint x="2220" y="160" as="targetPoint" />
          </mxGeometry>
        </mxCell>
        <mxCell id="yQtuGmCHs2OhEpyhOsAx-35" style="edgeStyle=orthogonalEdgeStyle;rounded=0;orthogonalLoop=1;jettySize=auto;html=1;" edge="1" parent="1" source="yQtuGmCHs2OhEpyhOsAx-37">
          <mxGeometry relative="1" as="geometry">
            <mxPoint x="2540" y="160" as="targetPoint" />
          </mxGeometry>
        </mxCell>
        <mxCell id="yQtuGmCHs2OhEpyhOsAx-36" value="SDRAM1" style="edgeLabel;html=1;align=center;verticalAlign=middle;resizable=0;points=[];" vertex="1" connectable="0" parent="yQtuGmCHs2OhEpyhOsAx-35">
          <mxGeometry x="0.4629" relative="1" as="geometry">
            <mxPoint x="-37" y="-20" as="offset" />
          </mxGeometry>
        </mxCell>
        <mxCell id="yQtuGmCHs2OhEpyhOsAx-37" value="FMC" style="rounded=0;whiteSpace=wrap;html=1;" vertex="1" parent="1">
          <mxGeometry x="2220" y="130" width="120" height="60" as="geometry" />
        </mxCell>
        <mxCell id="yQtuGmCHs2OhEpyhOsAx-38" style="edgeStyle=orthogonalEdgeStyle;rounded=0;orthogonalLoop=1;jettySize=auto;html=1;entryX=0;entryY=0.5;entryDx=0;entryDy=0;" edge="1" parent="1" target="yQtuGmCHs2OhEpyhOsAx-27">
          <mxGeometry relative="1" as="geometry">
            <mxPoint x="1860" y="550" as="sourcePoint" />
            <Array as="points">
              <mxPoint x="1640" y="600" />
              <mxPoint x="1640" y="550" />
            </Array>
          </mxGeometry>
        </mxCell>
        <mxCell id="yQtuGmCHs2OhEpyhOsAx-39" style="edgeStyle=orthogonalEdgeStyle;rounded=0;orthogonalLoop=1;jettySize=auto;html=1;entryX=0;entryY=0.5;entryDx=0;entryDy=0;" edge="1" parent="1" target="yQtuGmCHs2OhEpyhOsAx-29">
          <mxGeometry relative="1" as="geometry">
            <mxPoint x="1870" y="760" as="sourcePoint" />
            <Array as="points">
              <mxPoint x="1650" y="810" />
              <mxPoint x="1650" y="760" />
            </Array>
          </mxGeometry>
        </mxCell>
        <mxCell id="yQtuGmCHs2OhEpyhOsAx-40" value="RAZ compteur TIM1" style="edgeLabel;html=1;align=center;verticalAlign=middle;resizable=0;points=[];" vertex="1" connectable="0" parent="yQtuGmCHs2OhEpyhOsAx-39">
          <mxGeometry x="-0.5179" y="-1" relative="1" as="geometry">
            <mxPoint x="-63" y="-9" as="offset" />
          </mxGeometry>
        </mxCell>
        <mxCell id="yQtuGmCHs2OhEpyhOsAx-41" style="edgeStyle=orthogonalEdgeStyle;rounded=0;orthogonalLoop=1;jettySize=auto;html=1;endArrow=blockThin;endFill=1;" edge="1" parent="1" source="yQtuGmCHs2OhEpyhOsAx-42" target="yQtuGmCHs2OhEpyhOsAx-56">
          <mxGeometry relative="1" as="geometry">
            <mxPoint x="2280" y="920" as="targetPoint" />
            <Array as="points">
              <mxPoint x="2120" y="860" />
              <mxPoint x="2120" y="920" />
              <mxPoint x="2200" y="920" />
              <mxPoint x="2200" y="830" />
            </Array>
          </mxGeometry>
        </mxCell>
        <mxCell id="yQtuGmCHs2OhEpyhOsAx-42" value="archivage des données" style="rounded=0;whiteSpace=wrap;html=1;" vertex="1" parent="1">
          <mxGeometry x="1940" y="120" width="120" height="810" as="geometry" />
        </mxCell>
        <mxCell id="yQtuGmCHs2OhEpyhOsAx-43" style="edgeStyle=orthogonalEdgeStyle;rounded=0;orthogonalLoop=1;jettySize=auto;html=1;entryX=0.007;entryY=0.029;entryDx=0;entryDy=0;entryPerimeter=0;" edge="1" parent="1" source="yQtuGmCHs2OhEpyhOsAx-2" target="yQtuGmCHs2OhEpyhOsAx-42">
          <mxGeometry relative="1" as="geometry" />
        </mxCell>
        <mxCell id="yQtuGmCHs2OhEpyhOsAx-44" style="edgeStyle=orthogonalEdgeStyle;rounded=0;orthogonalLoop=1;jettySize=auto;html=1;entryX=0;entryY=0.141;entryDx=0;entryDy=0;entryPerimeter=0;" edge="1" parent="1" source="yQtuGmCHs2OhEpyhOsAx-6" target="yQtuGmCHs2OhEpyhOsAx-42">
          <mxGeometry relative="1" as="geometry" />
        </mxCell>
        <mxCell id="yQtuGmCHs2OhEpyhOsAx-45" style="edgeStyle=orthogonalEdgeStyle;rounded=0;orthogonalLoop=1;jettySize=auto;html=1;entryX=-0.017;entryY=0.233;entryDx=0;entryDy=0;entryPerimeter=0;" edge="1" parent="1" source="yQtuGmCHs2OhEpyhOsAx-9" target="yQtuGmCHs2OhEpyhOsAx-42">
          <mxGeometry relative="1" as="geometry" />
        </mxCell>
        <mxCell id="yQtuGmCHs2OhEpyhOsAx-46" style="edgeStyle=orthogonalEdgeStyle;rounded=0;orthogonalLoop=1;jettySize=auto;html=1;entryX=-0.001;entryY=0.339;entryDx=0;entryDy=0;entryPerimeter=0;" edge="1" parent="1" source="yQtuGmCHs2OhEpyhOsAx-13" target="yQtuGmCHs2OhEpyhOsAx-42">
          <mxGeometry relative="1" as="geometry" />
        </mxCell>
        <mxCell id="yQtuGmCHs2OhEpyhOsAx-47" style="edgeStyle=orthogonalEdgeStyle;rounded=0;orthogonalLoop=1;jettySize=auto;html=1;entryX=0.083;entryY=0.926;entryDx=0;entryDy=0;entryPerimeter=0;" edge="1" parent="1" source="yQtuGmCHs2OhEpyhOsAx-31" target="yQtuGmCHs2OhEpyhOsAx-42">
          <mxGeometry relative="1" as="geometry" />
        </mxCell>
        <mxCell id="yQtuGmCHs2OhEpyhOsAx-48" style="edgeStyle=orthogonalEdgeStyle;rounded=0;orthogonalLoop=1;jettySize=auto;html=1;entryX=-0.009;entryY=0.715;entryDx=0;entryDy=0;entryPerimeter=0;" edge="1" parent="1" source="yQtuGmCHs2OhEpyhOsAx-29" target="yQtuGmCHs2OhEpyhOsAx-42">
          <mxGeometry relative="1" as="geometry" />
        </mxCell>
        <mxCell id="yQtuGmCHs2OhEpyhOsAx-49" style="edgeStyle=orthogonalEdgeStyle;rounded=0;orthogonalLoop=1;jettySize=auto;html=1;entryX=-0.017;entryY=0.486;entryDx=0;entryDy=0;entryPerimeter=0;" edge="1" parent="1" source="yQtuGmCHs2OhEpyhOsAx-17" target="yQtuGmCHs2OhEpyhOsAx-42">
          <mxGeometry relative="1" as="geometry" />
        </mxCell>
        <mxCell id="yQtuGmCHs2OhEpyhOsAx-50" style="edgeStyle=orthogonalEdgeStyle;rounded=0;orthogonalLoop=1;jettySize=auto;html=1;endArrow=classicThin;endFill=1;" edge="1" parent="1" source="yQtuGmCHs2OhEpyhOsAx-51" target="yQtuGmCHs2OhEpyhOsAx-58">
          <mxGeometry relative="1" as="geometry">
            <mxPoint x="2280" y="920" as="targetPoint" />
            <Array as="points">
              <mxPoint x="2120" y="990" />
              <mxPoint x="2120" y="920" />
              <mxPoint x="2200" y="920" />
              <mxPoint x="2200" y="990" />
            </Array>
          </mxGeometry>
        </mxCell>
        <mxCell id="yQtuGmCHs2OhEpyhOsAx-51" value="DMA2D" style="rounded=0;whiteSpace=wrap;html=1;" vertex="1" parent="1">
          <mxGeometry x="1669.76" y="960" width="120" height="60" as="geometry" />
        </mxCell>
        <mxCell id="yQtuGmCHs2OhEpyhOsAx-52" value="" style="endArrow=classicThin;html=1;rounded=0;entryX=0;entryY=0.5;entryDx=0;entryDy=0;endFill=1;" edge="1" parent="1" target="yQtuGmCHs2OhEpyhOsAx-51">
          <mxGeometry width="50" height="50" relative="1" as="geometry">
            <mxPoint x="1560" y="990" as="sourcePoint" />
            <mxPoint x="1930" y="550" as="targetPoint" />
          </mxGeometry>
        </mxCell>
        <mxCell id="yQtuGmCHs2OhEpyhOsAx-53" value="écran IRQ" style="edgeLabel;html=1;align=center;verticalAlign=middle;resizable=0;points=[];" vertex="1" connectable="0" parent="yQtuGmCHs2OhEpyhOsAx-52">
          <mxGeometry x="-0.1727" y="4" relative="1" as="geometry">
            <mxPoint x="226" y="-16" as="offset" />
          </mxGeometry>
        </mxCell>
        <mxCell id="yQtuGmCHs2OhEpyhOsAx-54" value="page change" style="edgeLabel;html=1;align=center;verticalAlign=middle;resizable=0;points=[];" vertex="1" connectable="0" parent="yQtuGmCHs2OhEpyhOsAx-52">
          <mxGeometry x="-0.0655" y="2" relative="1" as="geometry">
            <mxPoint x="-1" y="-18" as="offset" />
          </mxGeometry>
        </mxCell>
        <mxCell id="yQtuGmCHs2OhEpyhOsAx-55" style="edgeStyle=orthogonalEdgeStyle;rounded=0;orthogonalLoop=1;jettySize=auto;html=1;" edge="1" parent="1" source="yQtuGmCHs2OhEpyhOsAx-56" target="yQtuGmCHs2OhEpyhOsAx-61">
          <mxGeometry relative="1" as="geometry">
            <mxPoint x="2480" y="830" as="targetPoint" />
          </mxGeometry>
        </mxCell>
        <mxCell id="yQtuGmCHs2OhEpyhOsAx-56" value="gétion de l&#39;écran LCD" style="rounded=0;whiteSpace=wrap;html=1;" vertex="1" parent="1">
          <mxGeometry x="2240" y="800" width="120" height="60" as="geometry" />
        </mxCell>
        <mxCell id="yQtuGmCHs2OhEpyhOsAx-57" style="edgeStyle=orthogonalEdgeStyle;rounded=0;orthogonalLoop=1;jettySize=auto;html=1;" edge="1" parent="1" source="yQtuGmCHs2OhEpyhOsAx-58" target="yQtuGmCHs2OhEpyhOsAx-64">
          <mxGeometry relative="1" as="geometry">
            <mxPoint x="2460" y="990" as="targetPoint" />
          </mxGeometry>
        </mxCell>
        <mxCell id="yQtuGmCHs2OhEpyhOsAx-58" value="génére un panell de coulleu sur 16 bits" style="rounded=0;whiteSpace=wrap;html=1;" vertex="1" parent="1">
          <mxGeometry x="2240" y="960" width="120" height="60" as="geometry" />
        </mxCell>
        <mxCell id="yQtuGmCHs2OhEpyhOsAx-59" style="edgeStyle=orthogonalEdgeStyle;rounded=0;orthogonalLoop=1;jettySize=auto;html=1;" edge="1" parent="1" source="yQtuGmCHs2OhEpyhOsAx-61">
          <mxGeometry relative="1" as="geometry">
            <mxPoint x="2710" y="830" as="targetPoint" />
          </mxGeometry>
        </mxCell>
        <mxCell id="yQtuGmCHs2OhEpyhOsAx-60" value="SDAM1" style="edgeLabel;html=1;align=center;verticalAlign=middle;resizable=0;points=[];" vertex="1" connectable="0" parent="yQtuGmCHs2OhEpyhOsAx-59">
          <mxGeometry x="0.2727" y="1" relative="1" as="geometry">
            <mxPoint y="-19" as="offset" />
          </mxGeometry>
        </mxCell>
        <mxCell id="yQtuGmCHs2OhEpyhOsAx-61" value="FCM" style="rounded=0;whiteSpace=wrap;html=1;" vertex="1" parent="1">
          <mxGeometry x="2470" y="800" width="120" height="60" as="geometry" />
        </mxCell>
        <mxCell id="yQtuGmCHs2OhEpyhOsAx-62" style="edgeStyle=orthogonalEdgeStyle;rounded=0;orthogonalLoop=1;jettySize=auto;html=1;" edge="1" parent="1" source="yQtuGmCHs2OhEpyhOsAx-64">
          <mxGeometry relative="1" as="geometry">
            <mxPoint x="2730" y="990" as="targetPoint" />
          </mxGeometry>
        </mxCell>
        <mxCell id="yQtuGmCHs2OhEpyhOsAx-63" value="couleur _LCD" style="edgeLabel;html=1;align=center;verticalAlign=middle;resizable=0;points=[];" vertex="1" connectable="0" parent="yQtuGmCHs2OhEpyhOsAx-62">
          <mxGeometry x="0.262" y="3" relative="1" as="geometry">
            <mxPoint x="-12" y="-17" as="offset" />
          </mxGeometry>
        </mxCell>
        <mxCell id="yQtuGmCHs2OhEpyhOsAx-64" value="LTDC" style="rounded=0;whiteSpace=wrap;html=1;" vertex="1" parent="1">
          <mxGeometry x="2480" y="960" width="120" height="60" as="geometry" />
        </mxCell>
        <mxCell id="yQtuGmCHs2OhEpyhOsAx-65" value="RAZ compteur TIM6" style="edgeLabel;html=1;align=center;verticalAlign=middle;resizable=0;points=[];" vertex="1" connectable="0" parent="1">
          <mxGeometry x="1789.7571428571432" y="590.0000000000005" as="geometry" />
        </mxCell>
        <mxCell id="yQtuGmCHs2OhEpyhOsAx-66" value="&lt;font style=&quot;font-size: 17px;&quot;&gt;flot d&#39;évenements&lt;/font&gt;" style="text;html=1;align=center;verticalAlign=middle;whiteSpace=wrap;rounded=0;" vertex="1" parent="1">
          <mxGeometry x="1890" y="-90" width="60" height="30" as="geometry" />
        </mxCell>
      </root>
    </mxGraphModel>
  </diagram>
</mxfile>
